<?xml version="1.0" encoding="UTF-8" standalone="no"?>
<svg
   width="32"
   height="16"
   viewBox="0 0 32 16"
   id="svg4140"
   version="1.1"
   inkscape:version="1.1 (c4e8f9ed74, 2021-05-24)"
   sodipodi:docname="switch-off.svg"
   xmlns:inkscape="http://www.inkscape.org/namespaces/inkscape"
   xmlns:sodipodi="http://sodipodi.sourceforge.net/DTD/sodipodi-0.dtd"
   xmlns="http://www.w3.org/2000/svg"
   xmlns:svg="http://www.w3.org/2000/svg"
   xmlns:rdf="http://www.w3.org/1999/02/22-rdf-syntax-ns#"
   xmlns:cc="http://creativecommons.org/ns#"
   xmlns:dc="http://purl.org/dc/elements/1.1/">
  <defs
     id="defs4142" />
  <sodipodi:namedview
     id="base"
     pagecolor="#ffffff"
     bordercolor="#666666"
     borderopacity="1.0"
     inkscape:pageopacity="0.0"
     inkscape:pageshadow="2"
     inkscape:zoom="11.2"
     inkscape:cx="9.8214286"
     inkscape:cy="-11.473214"
     inkscape:document-units="px"
     inkscape:current-layer="layer1"
     showgrid="false"
     units="px"
     inkscape:window-width="1920"
     inkscape:window-height="998"
     inkscape:window-x="0"
     inkscape:window-y="0"
     inkscape:window-maximized="1"
     inkscape:document-rotation="0"
     inkscape:pagecheckerboard="0">
    <inkscape:grid
       type="xygrid"
       id="grid4688" />
  </sodipodi:namedview>
  <metadata
     id="metadata4145">
    <rdf:RDF>
      <cc:Work
         rdf:about="">
        <dc:format>image/svg+xml</dc:format>
        <dc:type
           rdf:resource="http://purl.org/dc/dcmitype/StillImage" />
      </cc:Work>
    </rdf:RDF>
  </metadata>
  <g
     inkscape:label="Layer 1"
     inkscape:groupmode="layer"
     id="layer1"
     transform="translate(0,-1036.3622)">
    <path
       id="path1630"
       style="opacity:1;fill:#000000;stroke-width:0.657798"
       d="M 2.9863281,0 C 1.3321954,0 0,1.3321954 0,2.9863281 V 13.013672 C 0,14.667805 1.3321954,16 2.9863281,16 H 29.013672 C 30.667805,16 32,14.667805 32,13.013672 V 2.9863281 C 32,1.3321954 30.667805,0 29.013672,0 Z m 0.8125,1 H 28.201172 c 0.09692,0 0.19278,0.00478 0.287109,0.013672 0.09433,0.00889 0.18607,0.021718 0.277344,0.039063 0.09127,0.017344 0.181774,0.039084 0.269531,0.064453 0.08776,0.025369 0.174034,0.054927 0.257813,0.087891 0.08378,0.032963 0.164802,0.069249 0.24414,0.109375 0.07934,0.040126 0.156034,0.084002 0.230469,0.1308594 0.07444,0.046858 0.145773,0.097232 0.214844,0.1503906 0.06907,0.053159 0.135975,0.1089409 0.199219,0.1679688 0.06324,0.059028 0.124685,0.1210808 0.18164,0.1855469 0.05696,0.064466 0.109952,0.1316988 0.160157,0.2011718 0.0502,0.069473 0.09763,0.1407949 0.140624,0.2148438 0.04299,0.074049 0.08187,0.1503221 0.117188,0.2285156 0.03532,0.078193 0.06657,0.1583274 0.09375,0.2402344 0.02718,0.081907 0.04978,0.1648107 0.06836,0.25 0.01858,0.085189 0.03345,0.1717252 0.04297,0.2597656 C 30.995851,3.4317904 31,3.5228209 31,3.6132812 v 8.7734378 c 0,0.09046 -0.0041,0.179537 -0.01367,0.267578 -0.0095,0.08804 -0.02439,0.176529 -0.04297,0.261719 -0.01858,0.08519 -0.04118,0.168093 -0.06836,0.25 -0.02718,0.08191 -0.05843,0.16204 -0.09375,0.240234 -0.03532,0.07819 -0.07419,0.154467 -0.117188,0.228516 -0.04299,0.07405 -0.09042,0.14537 -0.140624,0.214843 -0.0502,0.06947 -0.103201,0.136706 -0.160157,0.201172 -0.05696,0.06447 -0.118396,0.126519 -0.18164,0.185547 -0.06324,0.05903 -0.130148,0.11481 -0.199219,0.167969 -0.06907,0.05316 -0.140408,0.103533 -0.214844,0.150391 -0.07444,0.04686 -0.151131,0.09073 -0.230469,0.130859 -0.07934,0.04013 -0.160361,0.07641 -0.24414,0.109375 -0.08378,0.03296 -0.170055,0.06252 -0.257813,0.08789 -0.08776,0.02537 -0.178257,0.04711 -0.269531,0.06445 -0.09127,0.01734 -0.183015,0.03017 -0.277344,0.03906 C 28.393952,14.995216 28.298094,15 28.201172,15 H 3.7988281 C 3.7019061,15 3.6060478,14.9952 3.5117188,14.98633 3.4173898,14.97743 3.3256493,14.96461 3.234375,14.94727 3.143101,14.92993 3.0526013,14.90819 2.9648438,14.88282 2.8770858,14.85745 2.79081,14.82789 2.7070312,14.79493 2.6232522,14.76197 2.5422287,14.72568 2.4628906,14.685555 2.3835526,14.645425 2.3068573,14.601555 2.2324219,14.554696 2.1579865,14.50783 2.0866489,14.457455 2.0175781,14.404297 1.9485074,14.351138 1.8816035,14.295356 1.8183594,14.236328 1.7551153,14.1773 1.6936743,14.115247 1.6367188,14.050781 1.5797632,13.986315 1.5267674,13.919082 1.4765625,13.849609 1.4263576,13.780136 1.3789299,13.708814 1.3359375,13.634766 1.2929451,13.560717 1.2540679,13.484444 1.21875,13.40625 1.1834321,13.328056 1.1521814,13.247923 1.125,13.166016 1.097819,13.084106 1.075224,13.001205 1.056641,12.916016 1.038058,12.830826 1.023195,12.742337 1.013672,12.654297 1.0041494,12.566256 1,12.477179 1,12.386719 V 3.6132812 C 1,3.5228212 1.00415,3.4317904 1.013672,3.34375 1.023192,3.25571 1.038058,3.1691737 1.056641,3.0839844 1.075224,2.9987954 1.097819,2.9158914 1.125,2.8339844 1.1521814,2.7520774 1.1834321,2.6719435 1.21875,2.59375 1.2540679,2.5155565 1.2929451,2.4392832 1.3359375,2.3652344 1.3789299,2.2911855 1.4263576,2.2198637 1.4765625,2.1503906 1.5267674,2.0809176 1.5797632,2.0136848 1.6367188,1.9492188 1.6936743,1.8847527 1.7551153,1.8226997 1.8183594,1.7636719 1.8816035,1.704644 1.9485074,1.6488616 2.0175781,1.5957031 2.0866489,1.5425446 2.1579865,1.4921704 2.2324219,1.4453125 2.3068573,1.3984546 2.3835525,1.3545794 2.4628906,1.3144531 2.5422287,1.2743269 2.6232525,1.2380415 2.7070312,1.2050781 2.79081,1.1721148 2.8770862,1.1425568 2.9648438,1.1171875 3.0526013,1.0918182 3.1431007,1.0700784 3.234375,1.0527344 3.3256493,1.0353904 3.4173897,1.0225595 3.5117188,1.0136719 3.6060478,1.0047843 3.7019063,1 3.7988281,1 Z"
       transform="translate(0,1036.3622)" />
    <rect
       style="opacity:1;fill:#000000;stroke-width:0.34885"
       id="rect946-3"
       width="12"
       height="12"
       x="2"
       y="1038.3622"
       rx="2.0914888"
       ry="2.0914888" />
  </g>
</svg>
