<?xml version="1.0" encoding="UTF-8" standalone="no"?>
<svg
   width="32"
   height="16"
   viewBox="0 0 32 16"
   id="svg4140"
   version="1.1"
   inkscape:version="1.1 (c4e8f9ed74, 2021-05-24)"
   sodipodi:docname="switch-on.svg"
   xmlns:inkscape="http://www.inkscape.org/namespaces/inkscape"
   xmlns:sodipodi="http://sodipodi.sourceforge.net/DTD/sodipodi-0.dtd"
   xmlns="http://www.w3.org/2000/svg"
   xmlns:svg="http://www.w3.org/2000/svg"
   xmlns:rdf="http://www.w3.org/1999/02/22-rdf-syntax-ns#"
   xmlns:cc="http://creativecommons.org/ns#"
   xmlns:dc="http://purl.org/dc/elements/1.1/">
  <defs
     id="defs4142" />
  <sodipodi:namedview
     id="base"
     pagecolor="#ffffff"
     bordercolor="#666666"
     borderopacity="1.0"
     inkscape:pageopacity="0.0"
     inkscape:pageshadow="2"
     inkscape:zoom="11.2"
     inkscape:cx="9.8214286"
     inkscape:cy="-11.473214"
     inkscape:document-units="px"
     inkscape:current-layer="layer1"
     showgrid="false"
     units="px"
     inkscape:window-width="1920"
     inkscape:window-height="998"
     inkscape:window-x="0"
     inkscape:window-y="0"
     inkscape:window-maximized="1"
     inkscape:document-rotation="0"
     inkscape:pagecheckerboard="0">
    <inkscape:grid
       type="xygrid"
       id="grid4688" />
  </sodipodi:namedview>
  <metadata
     id="metadata4145">
    <rdf:RDF>
      <cc:Work
         rdf:about="">
        <dc:format>image/svg+xml</dc:format>
        <dc:type
           rdf:resource="http://purl.org/dc/dcmitype/StillImage" />
      </cc:Work>
    </rdf:RDF>
  </metadata>
  <g
     inkscape:label="Layer 1"
     inkscape:groupmode="layer"
     id="layer1"
     transform="translate(0,-1036.3622)">
    <path
       id="path1630"
       style="opacity:1;fill:#000000;stroke-width:0.657798"
       d="m 29.013672,1036.3622 c 1.654133,0 2.986328,1.3322 2.986328,2.9863 v 10.0274 c 0,1.6541 -1.332195,2.9863 -2.986328,2.9863 H 2.986328 C 1.332195,1052.3622 0,1051.03 0,1049.3759 v -10.0274 c 0,-1.6541 1.332195,-2.9863 2.986328,-2.9863 z m -0.8125,1 H 3.798828 c -0.09692,0 -0.19278,0 -0.287109,0.014 -0.09433,0.01 -0.18607,0.022 -0.277344,0.039 -0.09127,0.017 -0.181774,0.039 -0.269531,0.064 -0.08776,0.025 -0.174034,0.055 -0.257813,0.088 -0.08378,0.033 -0.164802,0.069 -0.24414,0.1094 -0.07934,0.04 -0.156034,0.084 -0.230469,0.1308 -0.07444,0.047 -0.145773,0.097 -0.214844,0.1504 -0.06907,0.053 -0.135975,0.1089 -0.199219,0.168 -0.06324,0.059 -0.124685,0.1211 -0.18164,0.1855 -0.05696,0.064 -0.109952,0.1317 -0.160157,0.2012 -0.0502,0.07 -0.09763,0.1408 -0.140624,0.2148 -0.04299,0.074 -0.08187,0.1504 -0.117188,0.2286 -0.03532,0.078 -0.06657,0.1583 -0.09375,0.2402 -0.02718,0.082 -0.04978,0.1648 -0.06836,0.25 -0.01858,0.085 -0.03345,0.1717 -0.04297,0.2598 C 1.004149,1039.794 1,1039.885 1,1039.9755 v 8.7734 c 0,0.091 0.0041,0.1796 0.01367,0.2676 0.0095,0.088 0.02439,0.1765 0.04297,0.2617 0.01858,0.085 0.04118,0.1681 0.06836,0.25 0.02718,0.082 0.05843,0.1621 0.09375,0.2403 0.03532,0.078 0.07419,0.1544 0.117188,0.2285 0.04299,0.074 0.09042,0.1453 0.140624,0.2148 0.0502,0.07 0.103201,0.1367 0.160157,0.2012 0.05696,0.064 0.118396,0.1265 0.18164,0.1855 0.06324,0.059 0.130148,0.1148 0.199219,0.168 0.06907,0.053 0.140408,0.1035 0.214844,0.1504 0.07444,0.047 0.151131,0.091 0.230469,0.1308 0.07934,0.04 0.160361,0.076 0.24414,0.1094 0.08378,0.033 0.170055,0.062 0.257813,0.088 0.08776,0.025 0.178257,0.047 0.269531,0.065 0.09127,0.017 0.183015,0.03 0.277344,0.039 0.094329,0.01 0.190187,0.014 0.287109,0.014 h 24.402344 c 0.09692,0 0.19278,-0 0.287109,-0.014 0.09433,-0.01 0.18607,-0.022 0.277344,-0.039 0.09127,-0.017 0.181774,-0.039 0.269531,-0.065 0.08776,-0.025 0.174034,-0.055 0.257813,-0.088 0.08378,-0.033 0.164802,-0.069 0.24414,-0.1093 0.07934,-0.04 0.156034,-0.084 0.230469,-0.1309 0.07444,-0.047 0.145773,-0.097 0.214844,-0.1504 0.06907,-0.053 0.135974,-0.1089 0.199219,-0.168 0.06324,-0.059 0.124685,-0.1211 0.18164,-0.1855 0.05696,-0.064 0.109952,-0.1317 0.160156,-0.2012 0.0502,-0.07 0.09763,-0.1408 0.140625,-0.2148 0.04299,-0.074 0.08187,-0.1504 0.117188,-0.2285 0.03532,-0.078 0.06657,-0.1584 0.09375,-0.2403 0.02718,-0.082 0.04978,-0.1648 0.06836,-0.25 0.01858,-0.085 0.03345,-0.1737 0.04297,-0.2617 0.0095,-0.088 0.01367,-0.1771 0.01367,-0.2676 v -8.7734 c 0,-0.091 -0.0041,-0.1815 -0.01367,-0.2695 -0.0095,-0.088 -0.02439,-0.1746 -0.04297,-0.2598 -0.01858,-0.085 -0.04118,-0.1681 -0.06836,-0.25 -0.02718,-0.082 -0.05843,-0.1621 -0.09375,-0.2402 -0.03532,-0.078 -0.07419,-0.1545 -0.117188,-0.2286 -0.04299,-0.074 -0.09042,-0.1453 -0.140625,-0.2148 -0.0502,-0.07 -0.1032,-0.1367 -0.160156,-0.2012 -0.05696,-0.064 -0.118396,-0.1265 -0.18164,-0.1855 -0.06324,-0.059 -0.130148,-0.1148 -0.199219,-0.168 -0.06907,-0.053 -0.140409,-0.1035 -0.214844,-0.1504 -0.07444,-0.047 -0.151131,-0.091 -0.230469,-0.1308 -0.07934,-0.04 -0.160362,-0.076 -0.24414,-0.1094 -0.08378,-0.033 -0.170055,-0.062 -0.257813,-0.088 -0.08776,-0.025 -0.178257,-0.047 -0.269531,-0.064 -0.09127,-0.017 -0.183015,-0.03 -0.277344,-0.039 -0.09433,-0.01 -0.190187,-0.014 -0.287109,-0.014 z" />
    <rect
       style="opacity:1;fill:#000000;stroke-width:0.34885"
       id="rect946-3"
       width="12"
       height="12"
       x="-30"
       y="1038.3622"
       rx="2.0914888"
       ry="2.0914888"
       transform="scale(-1,1)" />
  </g>
</svg>
